<?xml version="1.0" encoding="utf-8"?>
<!-- Generator: Adobe Illustrator 27.5.0, SVG Export Plug-In . SVG Version: 6.00 Build 0)  -->
<svg version="1.1" id="BACKGROUND" xmlns="http://www.w3.org/2000/svg" xmlns:xlink="http://www.w3.org/1999/xlink" x="0px" y="0px"
	 viewBox="0 0 750 500" style="enable-background:new 0 0 750 500;" xml:space="preserve">
<g>
	<rect style="fill:#FFF9F0;" width="750" height="500"/>
	<path style="fill:#F9EDDE;" d="M602.514,472.886h-9.495V193.59h9.495v-11.659h18.317L375,49.062L129.169,181.931h18.317v11.659
		h9.495v279.296h-9.495v10.016h-15.278V500h485.585v-17.097h-15.278V472.886z M562.788,181.931v11.659h9.495v279.296h-9.495v10.016
		h-43.414v-10.016h-9.415V193.59h9.415v-11.659H562.788z M479.648,181.931v11.659h9.574v279.296h-9.574v10.016h-43.334v-10.016
		h-9.415V193.59h9.415v-11.659H479.648z M396.588,181.931v11.659h9.574v279.296h-9.574v10.016h-43.255v-10.016h-9.495V193.59h9.495
		v-11.659H396.588z M313.607,181.931v11.659h9.495v279.296h-9.495v10.016h-43.334v-10.016h-9.495V193.59h9.495v-11.659H313.607z
		 M177.717,193.59h9.495v-11.659h43.334v11.659h9.495v279.296h-9.495v10.016h-43.334v-10.016h-9.495V193.59z M393.798,107.637
		c0,10.382-8.416,18.798-18.798,18.798s-18.798-8.416-18.798-18.798S364.618,88.838,375,88.838S393.798,97.255,393.798,107.637z"/>
	<g>
		
			<text transform="matrix(1 0 0 1 230.6113 215.1738)" style="fill:#035AA6; font-family:'Montserrat-Black'; font-size:35.7268px;">LAWYERS DAY</text>
		
			<text transform="matrix(1 0 0 1 317.8354 176.7725)" style="fill:#035AA6; font-family:'Montserrat-Medium'; font-size:21.6553px; letter-spacing:8;">HAPPY</text>
	</g>
	<g>
		<defs>
			<rect id="SVGID_1_" width="750" height="500"/>
		</defs>
		<clipPath id="SVGID_00000001630814695538249210000003935845340811116940_">
			<use xlink:href="#SVGID_1_"  style="overflow:visible;"/>
		</clipPath>
		<g style="clip-path:url(#SVGID_00000001630814695538249210000003935845340811116940_);">
			<g>
				<path style="fill:#8294BF;" d="M112.02,330.078L3.918,348.489c-8.07,1.374-13.548,9.102-12.174,17.172l23.521,138.102
					c1.375,8.07,9.102,13.548,17.172,12.174l108.102-18.412L112.02,330.078z"/>
				<g>
					<path style="fill:#6980AF;" d="M130.022,477.543l-20.394-119.739c-2.973,0.506-5.794-1.493-6.3-4.467
						c-0.023-0.138-0.015-0.273-0.028-0.41l-76.68,13.06c0.033,0.134,0.086,0.258,0.109,0.396c0.506,2.973-1.493,5.794-4.467,6.301
						l20.393,119.739c2.973-0.506,5.794,1.493,6.301,4.467l76.598-13.046C125.049,480.87,127.049,478.049,130.022,477.543z"/>
					<g>
						
							<rect x="38.921" y="378.485" transform="matrix(0.9858 -0.1679 0.1679 0.9858 -65.0529 17.4396)" style="fill:#035AA6;" width="63.37" height="29.874"/>
						
							<text transform="matrix(0.9858 -0.1679 0.1679 0.9858 48.0703 403.836)" style="fill:#D9AE5F; font-family:'Montserrat-Black'; font-size:18.2282px;">LAW</text>
					</g>
				</g>
				<path style="fill:#035AA6;" d="M12.064,347.102l-8.146,1.387c-8.07,1.374-13.548,9.102-12.174,17.172l23.521,138.102
					c1.375,8.07,9.102,13.548,17.172,12.174l8.146-1.388L12.064,347.102z"/>
				<g>
					<g>
						
							<rect x="13.038" y="486.148" transform="matrix(0.9858 -0.1679 0.1679 0.9858 -81.8725 11.0841)" style="fill:#D9AE5F;" width="23.148" height="7.119"/>
						
							<rect x="10.994" y="474.149" transform="matrix(0.9858 -0.1679 0.1679 0.9858 -79.8869 10.5707)" style="fill:#D9AE5F;" width="23.148" height="7.119"/>
					</g>
					<g>
						
							<rect x="-4.314" y="384.27" transform="matrix(0.9858 -0.1679 0.1679 0.9858 -65.0137 6.7246)" style="fill:#D9AE5F;" width="23.148" height="7.119"/>
						
							<rect x="-6.358" y="372.271" transform="matrix(0.9858 -0.1679 0.1679 0.9858 -63.028 6.2111)" style="fill:#D9AE5F;" width="23.148" height="7.119"/>
					</g>
				</g>
				<path style="opacity:0.1;fill:#061726;" d="M93.217,333.28c5.274,11.512,9.27,24.263,11.593,37.902
					c10.387,60.987-16.406,116.424-59.845,123.822c-10.745,1.83-21.5,0.54-31.763-3.348l2.062,12.107
					c1.375,8.07,9.102,13.548,17.172,12.174l108.102-18.412L112.02,330.078L93.217,333.28z"/>
			</g>
			<g>
				<g>
					<path style="fill:#D9AE5F;" d="M430.703,485.32c-1.514-3.57-5.059-6.091-9.165-6.091h-93.076c-4.106,0-7.651,2.521-9.165,6.091
						H430.703z"/>
					<rect x="312.067" y="484.32" style="fill:#BF7C63;" width="125.866" height="16.043"/>
				</g>
				<g>
					<g>
						<polygon style="fill:#BF7C63;" points="387.199,479.229 362.801,479.229 369.801,316.415 380.199,316.415 						"/>
						<polygon style="opacity:0.1;fill:#061726;" points="380.199,316.415 375.295,316.415 382.295,479.229 387.199,479.229 						
							"/>
					</g>
					<g>
						<g>
							<g>
								<path style="fill:#D9AE5F;" d="M486.263,407.748c-3.203-8.669-6.406-17.338-9.609-26.007
									c-5.072-13.726-10.143-27.453-15.215-41.179c-1.17-3.166-2.34-6.332-3.509-9.498c-0.437-1.182-1.973-1.184-2.411,0
									c-3.203,8.669-6.406,17.338-9.609,26.007c-5.072,13.726-10.143,27.453-15.215,41.179c-1.17,3.166-2.34,6.332-3.509,9.498
									c-0.558,1.511,1.857,2.163,2.411,0.665c3.203-8.669,6.406-17.338,9.609-26.007c5.072-13.726,10.143-27.453,15.215-41.179
									c0.768-2.079,1.536-4.157,2.304-6.236c2.801,7.582,5.602,15.163,8.404,22.745c5.072,13.726,10.143,27.453,15.214,41.179
									c1.17,3.166,2.34,6.332,3.509,9.498C484.406,409.909,486.823,409.262,486.263,407.748z"/>
								<g>
									<g>
										<path style="fill:#D9AE5F;" d="M456.725,435.724c15.648,0,28.333-12.685,28.333-28.333h-56.666
											C428.393,423.039,441.078,435.724,456.725,435.724z"/>
										<path style="opacity:0.1;fill:#061726;" d="M472.477,407.392c0,13.485-9.424,24.761-22.042,27.623
											c2.024,0.459,4.127,0.71,6.29,0.71c15.648,0,28.333-12.685,28.333-28.333H472.477z"/>
									</g>
									<g>
										<path style="fill:#BF7C63;" d="M428.393,410.081c6.41,0,12.819,0,19.228,0c10.123,0,20.246,0,30.368,0
											c2.356,0,4.713,0,7.069,0c3.46,0,3.466-5.378,0-5.378c-6.41,0-12.819,0-19.228,0c-10.123,0-20.246,0-30.368,0
											c-2.356,0-4.713,0-7.069,0C424.932,404.703,424.926,410.081,428.393,410.081L428.393,410.081z"/>
									</g>
								</g>
							</g>
							<g>
								<g>
									<path style="fill:#BF7C63;" d="M381.592,315.603c0.387-0.228,0.791-0.431,1.194-0.63c0.43-0.212,0.867-0.409,1.304-0.608
										c0.877-0.398-0.787,0.306,0.151-0.065c0.402-0.159,0.804-0.319,1.209-0.47c1.663-0.617,3.365-1.13,5.091-1.539
										c1.02-0.242,2.05-0.447,3.085-0.614c0.218-0.035,0.437-0.067,0.655-0.1c-0.883,0.133,0.241-0.027,0.349-0.039
										c0.58-0.065,1.162-0.118,1.745-0.159c5.668-0.394,10.392,0.279,15.758,2.372c2.686,1.048,5.442,2.7,8.061,4.154
										c2.494,1.385,4.982,2.783,7.472,4.175c6.909,3.863,13.989,8.067,21.718,10.063c7.989,2.063,17.429,2.244,24.528-2.491
										c4.309-2.874,7.581-7.17,8.884-12.218c1.479-5.729,0.352-11.595-2.258-16.81c-0.906-1.811-3.464-2.32-5.131-1.345
										c-1.844,1.078-2.255,3.313-1.345,5.131c0.17,0.339,0.332,0.681,0.493,1.024c0.041,0.087,0.27,0.667,0.057,0.125
										c0.219,0.557,0.421,1.119,0.598,1.691c0.154,0.497,0.288,1,0.405,1.507c0.063,0.275,0.122,0.552,0.173,0.83
										c0.02,0.109,0.149,1.19,0.065,0.318c0.098,1.015,0.154,2.023,0.104,3.043c-0.012,0.241-0.177,1.625-0.031,0.703
										c-0.095,0.603-0.209,1.201-0.362,1.792c-0.1,0.389-0.214,0.774-0.342,1.155c-0.095,0.284-0.203,0.562-0.308,0.843
										c0.047-0.125,0.333-0.695,0.027-0.074c-0.438,0.891-0.901,1.755-1.467,2.573c-0.086,0.124-0.699,0.893-0.123,0.192
										c-0.126,0.153-0.25,0.307-0.38,0.457c-0.324,0.377-0.665,0.74-1.02,1.087c-0.323,0.316-0.664,0.608-1.003,0.907
										c-0.153,0.135-0.711,0.532-0.072,0.07c-0.247,0.179-0.494,0.357-0.748,0.527c-0.821,0.548-1.684,1.008-2.573,1.435
										c-0.559,0.269,0.832-0.298-0.125,0.058c-0.2,0.075-0.399,0.153-0.6,0.225c-0.614,0.219-1.239,0.407-1.871,0.566
										c-0.486,0.122-0.976,0.226-1.469,0.314c-0.188,0.033-0.936,0.137-0.181,0.043c-0.228,0.029-0.458,0.052-0.687,0.073
										c-1.103,0.101-2.21,0.107-3.316,0.081c-0.81-0.019-1.619-0.058-2.427-0.121c-0.37-0.029-0.739-0.063-1.107-0.102
										c-0.202-0.021-0.404-0.047-0.606-0.068c-0.863-0.091,0.891,0.144,0.041,0.005c-1.561-0.255-3.102-0.561-4.625-0.99
										c-1.519-0.428-3.01-0.95-4.474-1.538c-0.196-0.078-0.389-0.162-0.586-0.239c0.852,0.336,0.374,0.16,0.187,0.078
										c-0.401-0.176-0.801-0.35-1.2-0.531c-0.835-0.379-1.662-0.774-2.483-1.18c-3.934-1.943-7.756-4.106-11.583-6.249
										c-5.33-2.984-10.603-6.308-16.313-8.519c-5.15-1.995-10.791-2.902-16.309-2.715c-6.745,0.229-14.128,1.853-20.012,5.322
										c-1.743,1.028-2.37,3.378-1.345,5.131C377.483,316.006,379.841,316.636,381.592,315.603L381.592,315.603z"/>
								</g>
								<g style="opacity:0.1;">
									<path style="fill:#061726;" d="M482.796,314.435c-1.303,5.048-4.575,9.344-8.884,12.218
										c-7.099,4.735-16.539,4.554-24.528,2.491c-7.728-1.996-14.809-6.2-21.718-10.063c-2.49-1.392-4.978-2.79-7.472-4.175
										c-2.619-1.454-5.375-3.106-8.061-4.154c-5.366-2.093-10.09-2.767-15.758-2.372c-0.583,0.04-1.165,0.094-1.745,0.159
										c-0.092,0.01-0.906,0.126-0.61,0.079c-0.131,0.02-0.263,0.039-0.393,0.06c-1.035,0.167-2.065,0.372-3.085,0.614
										c-1.726,0.409-3.428,0.922-5.091,1.539c-0.406,0.15-0.807,0.311-1.209,0.47c-0.023,0.009-0.037,0.015-0.057,0.022
										c-0.029,0.013-0.056,0.026-0.094,0.043c-0.437,0.198-0.874,0.395-1.304,0.607c-0.403,0.199-0.807,0.401-1.194,0.63
										c-1.751,1.032-4.108,0.403-5.131-1.345c-0.07-0.12-0.114-0.249-0.169-0.374c-0.456,1.066-0.444,2.325,0.169,3.374
										c1.022,1.748,3.38,2.378,5.131,1.345c0.387-0.228,0.791-0.431,1.194-0.63c0.43-0.212,0.867-0.409,1.304-0.607
										c0.038-0.017,0.065-0.03,0.094-0.043c0.02-0.008,0.034-0.013,0.057-0.022c0.402-0.159,0.804-0.319,1.209-0.47
										c1.663-0.617,3.365-1.13,5.091-1.539c1.02-0.242,2.05-0.447,3.085-0.614c0.131-0.021,0.262-0.041,0.393-0.06
										c-0.296,0.047,0.519-0.069,0.61-0.079c0.58-0.065,1.162-0.118,1.745-0.159c5.668-0.394,10.392,0.279,15.758,2.372
										c2.686,1.048,5.442,2.7,8.061,4.154c2.494,1.385,4.982,2.783,7.472,4.175c6.909,3.863,13.989,8.067,21.718,10.063
										c7.989,2.063,17.429,2.244,24.528-2.491c4.309-2.874,7.581-7.17,8.884-12.218c0.58-2.247,0.754-4.514,0.6-6.756
										C483.309,311.932,483.118,313.187,482.796,314.435z"/>
								</g>
							</g>
						</g>
						<g>
							<g>
								<path style="fill:#D9AE5F;" d="M263.736,407.748c3.203-8.669,6.406-17.338,9.609-26.007
									c5.072-13.726,10.143-27.453,15.215-41.179c1.17-3.166,2.34-6.332,3.509-9.498c0.437-1.182,1.973-1.184,2.411,0
									c3.203,8.669,6.406,17.338,9.609,26.007c5.072,13.726,10.143,27.453,15.215,41.179c1.17,3.166,2.339,6.332,3.509,9.498
									c0.558,1.511-1.857,2.163-2.411,0.665c-3.203-8.669-6.406-17.338-9.609-26.007c-5.072-13.726-10.143-27.453-15.215-41.179
									c-0.768-2.079-1.536-4.157-2.304-6.236c-2.801,7.582-5.602,15.163-8.404,22.745c-5.072,13.726-10.143,27.453-15.215,41.179
									c-1.17,3.166-2.34,6.332-3.509,9.498C265.594,409.909,263.177,409.262,263.736,407.748z"/>
								<g>
									<g>
										<path style="fill:#D9AE5F;" d="M293.275,435.724c-15.648,0-28.333-12.685-28.333-28.333h56.666
											C321.607,423.039,308.922,435.724,293.275,435.724z"/>
										<path style="opacity:0.1;fill:#061726;" d="M277.522,407.392c0,13.485,9.424,24.761,22.043,27.623
											c-2.024,0.459-4.127,0.71-6.29,0.71c-15.648,0-28.333-12.685-28.333-28.333H277.522z"/>
									</g>
									<g>
										<path style="fill:#BF7C63;" d="M321.607,410.081c-6.409,0-12.819,0-19.228,0c-10.123,0-20.246,0-30.368,0
											c-2.356,0-4.713,0-7.069,0c-3.46,0-3.466-5.378,0-5.378c6.409,0,12.819,0,19.228,0c10.123,0,20.245,0,30.368,0
											c2.356,0,4.713,0,7.069,0C325.068,404.703,325.073,410.081,321.607,410.081L321.607,410.081z"/>
									</g>
								</g>
							</g>
							<g>
								<g>
									<path style="fill:#BF7C63;" d="M368.408,315.603c-0.387-0.228-0.791-0.431-1.194-0.63c-0.43-0.212-0.867-0.409-1.304-0.608
										c-0.877-0.398,0.788,0.306-0.151-0.065c-0.402-0.159-0.804-0.319-1.209-0.47c-1.663-0.617-3.365-1.13-5.091-1.539
										c-1.02-0.242-2.05-0.447-3.085-0.614c-0.218-0.035-0.437-0.067-0.655-0.1c0.883,0.133-0.241-0.027-0.349-0.039
										c-0.581-0.065-1.162-0.118-1.745-0.159c-5.668-0.394-10.392,0.279-15.758,2.372c-2.686,1.048-5.442,2.7-8.061,4.154
										c-2.494,1.385-4.981,2.783-7.472,4.175c-6.909,3.863-13.989,8.067-21.718,10.063c-7.989,2.063-17.429,2.244-24.528-2.491
										c-4.309-2.874-7.581-7.17-8.884-12.218c-1.479-5.729-0.352-11.595,2.258-16.81c0.906-1.811,3.464-2.32,5.131-1.345
										c1.844,1.078,2.255,3.313,1.345,5.131c-0.17,0.339-0.332,0.681-0.493,1.024c-0.041,0.087-0.27,0.667-0.057,0.125
										c-0.219,0.557-0.421,1.119-0.598,1.691c-0.154,0.497-0.288,1-0.405,1.507c-0.063,0.275-0.122,0.552-0.173,0.83
										c-0.02,0.109-0.149,1.19-0.065,0.318c-0.098,1.015-0.154,2.023-0.104,3.043c0.012,0.241,0.177,1.625,0.031,0.703
										c0.095,0.603,0.209,1.201,0.362,1.792c0.1,0.389,0.214,0.774,0.342,1.155c0.095,0.284,0.203,0.562,0.308,0.843
										c-0.047-0.125-0.333-0.695-0.027-0.074c0.438,0.891,0.901,1.755,1.468,2.573c0.086,0.124,0.699,0.893,0.123,0.192
										c0.126,0.153,0.251,0.307,0.38,0.457c0.324,0.377,0.665,0.74,1.02,1.087c0.323,0.316,0.664,0.608,1.003,0.907
										c0.153,0.135,0.711,0.532,0.072,0.07c0.247,0.179,0.494,0.357,0.748,0.527c0.822,0.548,1.685,1.008,2.573,1.435
										c0.559,0.269-0.832-0.298,0.125,0.058c0.2,0.075,0.399,0.153,0.6,0.225c0.614,0.219,1.239,0.407,1.871,0.566
										c0.486,0.122,0.976,0.226,1.469,0.314c0.188,0.033,0.936,0.137,0.181,0.043c0.228,0.029,0.458,0.052,0.687,0.073
										c1.103,0.101,2.21,0.107,3.316,0.081c0.81-0.019,1.619-0.058,2.427-0.121c0.37-0.029,0.739-0.063,1.107-0.102
										c0.202-0.021,0.404-0.047,0.606-0.068c0.863-0.091-0.891,0.144-0.041,0.005c1.56-0.255,3.102-0.561,4.625-0.99
										c1.519-0.428,3.01-0.95,4.474-1.538c0.196-0.078,0.389-0.162,0.586-0.239c-0.852,0.336-0.374,0.16-0.187,0.078
										c0.401-0.176,0.801-0.35,1.2-0.531c0.835-0.379,1.662-0.774,2.484-1.18c3.934-1.943,7.756-4.106,11.583-6.249
										c5.33-2.984,10.603-6.308,16.313-8.519c5.15-1.995,10.791-2.902,16.309-2.715c6.745,0.229,14.128,1.853,20.012,5.322
										c1.743,1.028,2.37,3.378,1.345,5.131C372.517,316.006,370.159,316.636,368.408,315.603L368.408,315.603z"/>
								</g>
								<g style="opacity:0.1;">
									<path style="fill:#061726;" d="M267.204,314.435c1.303,5.048,4.575,9.344,8.884,12.218
										c7.099,4.735,16.539,4.554,24.528,2.491c7.728-1.996,14.809-6.2,21.718-10.063c2.49-1.392,4.977-2.79,7.472-4.175
										c2.619-1.454,5.375-3.106,8.061-4.154c5.366-2.093,10.09-2.767,15.758-2.372c0.583,0.04,1.165,0.094,1.745,0.159
										c0.091,0.01,0.906,0.126,0.61,0.079c0.131,0.02,0.262,0.039,0.393,0.06c1.035,0.167,2.065,0.372,3.085,0.614
										c1.726,0.409,3.428,0.922,5.091,1.539c0.406,0.15,0.807,0.311,1.209,0.47c0.023,0.009,0.037,0.015,0.057,0.022
										c0.029,0.013,0.056,0.026,0.094,0.043c0.437,0.198,0.874,0.395,1.304,0.607c0.403,0.199,0.806,0.401,1.194,0.63
										c1.751,1.032,4.108,0.403,5.131-1.345c0.07-0.12,0.114-0.249,0.169-0.374c0.456,1.066,0.444,2.325-0.169,3.374
										c-1.022,1.748-3.38,2.378-5.131,1.345c-0.387-0.228-0.791-0.431-1.194-0.63c-0.43-0.212-0.867-0.409-1.304-0.607
										c-0.038-0.017-0.065-0.03-0.094-0.043c-0.02-0.008-0.034-0.013-0.057-0.022c-0.402-0.159-0.804-0.319-1.209-0.47
										c-1.663-0.617-3.365-1.13-5.091-1.539c-1.02-0.242-2.05-0.447-3.085-0.614c-0.131-0.021-0.262-0.041-0.393-0.06
										c0.296,0.047-0.519-0.069-0.61-0.079c-0.581-0.065-1.162-0.118-1.745-0.159c-5.668-0.394-10.392,0.279-15.758,2.372
										c-2.686,1.048-5.442,2.7-8.061,4.154c-2.494,1.385-4.981,2.783-7.472,4.175c-6.909,3.863-13.989,8.067-21.718,10.063
										c-7.989,2.063-17.429,2.244-24.528-2.491c-4.309-2.874-7.581-7.17-8.884-12.218c-0.58-2.247-0.754-4.514-0.6-6.756
										C266.691,311.932,266.882,313.187,267.204,314.435z"/>
								</g>
							</g>
						</g>
					</g>
					<g>
						<circle style="fill:#D9AE5F;" cx="375" cy="309.909" r="18.828"/>
						
							<ellipse transform="matrix(0.9386 -0.3449 0.3449 0.9386 -83.8732 148.342)" style="fill:#BF7C63;" cx="375" cy="309.909" rx="12.199" ry="12.199"/>
						<path style="opacity:0.1;fill:#061726;" d="M387.112,295.505c0.051,0.564,0.086,1.132,0.086,1.709
							c0,10.398-8.429,18.827-18.828,18.827c-4.615,0-8.838-1.667-12.112-4.423c0.865,9.596,8.92,17.118,18.741,17.118
							c10.398,0,18.827-8.429,18.827-18.828C393.827,304.126,391.215,298.958,387.112,295.505z"/>
					</g>
				</g>
			</g>
			<g>
				<path style="fill:#D9AE5F;" d="M196.637,459.005l0.02,0.001c-7.342-14.219,4.443-20.929,4.443-20.929l-0.013-0.008
					c17.926-5.311,33.19-22.194,37.939-44.565l-93.136-19.773c-4.749,22.37,2.339,43.999,16.56,56.136l-0.016,0.002
					c0,0,8.042,10.919-4.443,20.929l0.018,0.007c-17.928,5.309-33.195,22.194-37.944,44.566l93.136,19.773
					C217.951,492.772,210.861,471.141,196.637,459.005z"/>
				<path style="fill:#BF7C63;" d="M127.862,492.727l79.289,16.833c4.197-19.771-2.464-38.863-15.509-48.937
					c-2.773-2.872-5.589-7.328-3.951-15.042c1.523-7.176,6.112-9.749,7.571-10.399c10.743-1.997,20.673-8.82,27.637-18.833
					c-12.402,2.184-31.451-4.105-43.161-13.144c-9.519-7.348-21.329-7.978-29.143-7.343c1.245,13.923,7.751,26.157,17.708,33.31
					l-0.002,0c0,0,4.857,4.366,3.038,12.937c-1.82,8.571-7.033,11.24-10.929,12.595l0.016,0.006
					C145.051,459.144,131.929,473.572,127.862,492.727z"/>
				<path style="fill:#035AA6;" d="M239.622,396.796l-95.614-20.299c-1.335-0.283-2.196-1.608-1.913-2.943l0.194-0.915
					c0.283-1.335,1.608-2.196,2.944-1.913l95.614,20.299c1.335,0.283,2.196,1.608,1.913,2.944l-0.194,0.915
					C242.282,396.219,240.957,397.08,239.622,396.796z"/>
				<path style="fill:#035AA6;" d="M214.074,517.13l-95.614-20.299c-1.335-0.284-2.196-1.608-1.913-2.944l0.194-0.915
					c0.284-1.335,1.608-2.196,2.944-1.913l95.614,20.299c1.335,0.284,2.196,1.608,1.913,2.944l-0.194,0.915
					C216.734,516.553,215.41,517.414,214.074,517.13z"/>
				<path style="opacity:0.1;fill:#061726;" d="M196.637,459.005l0.02,0.001c-7.342-14.219,4.443-20.929,4.443-20.929l-0.013-0.008
					c17.926-5.311,33.19-22.194,37.939-44.565l-11.726-2.49c-4.749,22.37-20.014,39.254-37.94,44.565l0.014,0.008
					c0,0-11.785,6.71-4.443,20.929l-0.02-0.001c14.224,12.135,21.314,33.766,16.564,56.139l11.726,2.49
					C217.951,492.772,210.861,471.141,196.637,459.005z"/>
				<g>
					<g>
						<path style="fill:#AD6650;" d="M161.023,403.783c-0.139,0.656-0.7,1.093-1.251,0.975c-0.552-0.117-0.887-0.744-0.747-1.4
							c0.139-0.656,0.7-1.093,1.251-0.975C160.828,402.5,161.163,403.127,161.023,403.783z"/>
						<path style="fill:#AD6650;" d="M164.669,416.224c-0.102,0.479-0.511,0.798-0.915,0.713c-0.403-0.086-0.648-0.543-0.546-1.023
							c0.102-0.479,0.511-0.798,0.914-0.713C164.526,415.286,164.771,415.744,164.669,416.224z"/>
						<path style="fill:#AD6650;" d="M173.155,408.523c-0.243,1.144-1.22,1.905-2.183,1.701c-0.962-0.204-1.546-1.297-1.303-2.441
							c0.243-1.144,1.22-1.905,2.182-1.701C172.814,406.286,173.398,407.379,173.155,408.523z"/>
					</g>
					<g>
						<path style="fill:#AD6650;" d="M173.485,420.262c-0.139,0.656-0.7,1.093-1.252,0.975c-0.552-0.117-0.886-0.744-0.747-1.4
							c0.139-0.656,0.7-1.093,1.252-0.975C173.29,418.979,173.624,419.606,173.485,420.262z"/>
						<path style="fill:#AD6650;" d="M177.131,432.703c-0.102,0.479-0.511,0.798-0.915,0.713c-0.403-0.086-0.648-0.544-0.546-1.023
							c0.102-0.479,0.511-0.798,0.915-0.713C176.988,431.765,177.233,432.223,177.131,432.703z"/>
						<path style="fill:#AD6650;" d="M185.617,425.002c-0.243,1.144-1.22,1.906-2.182,1.701c-0.963-0.204-1.546-1.297-1.303-2.441
							c0.243-1.144,1.22-1.905,2.182-1.701C185.276,422.765,185.86,423.858,185.617,425.002z"/>
						<path style="fill:#AD6650;" d="M180.395,444.032c-0.102,0.479-0.511,0.798-0.915,0.713c-0.403-0.086-0.648-0.544-0.546-1.023
							c0.102-0.479,0.511-0.798,0.914-0.713C180.252,443.095,180.497,443.553,180.395,444.032z"/>
						<path style="fill:#AD6650;" d="M175.12,452.012c-0.139,0.656-0.7,1.093-1.251,0.975c-0.552-0.117-0.887-0.744-0.747-1.4
							c0.139-0.656,0.7-1.093,1.252-0.975C174.925,450.73,175.259,451.357,175.12,452.012z"/>
					</g>
					<g>
						<path style="fill:#AD6650;" d="M187.97,414.597c-0.139,0.656-0.7,1.093-1.251,0.975c-0.552-0.117-0.887-0.744-0.747-1.4
							c0.139-0.656,0.7-1.093,1.251-0.975C187.775,413.315,188.109,413.941,187.97,414.597z"/>
						<path style="fill:#AD6650;" d="M197.827,425.43c-0.102,0.479-0.511,0.798-0.915,0.713c-0.403-0.086-0.648-0.544-0.546-1.023
							c0.102-0.479,0.511-0.798,0.915-0.713C197.685,424.493,197.929,424.951,197.827,425.43z"/>
						<path style="fill:#AD6650;" d="M208.097,421.035c-0.243,1.144-1.22,1.905-2.183,1.701c-0.963-0.204-1.546-1.297-1.303-2.441
							c0.243-1.144,1.22-1.905,2.183-1.701C207.756,418.798,208.34,419.891,208.097,421.035z"/>
					</g>
					<g>
						<path style="fill:#AD6650;" d="M169.005,460.065c-0.139,0.656-0.7,1.093-1.252,0.975c-0.552-0.117-0.886-0.744-0.747-1.4
							c0.139-0.656,0.7-1.093,1.251-0.975C168.81,458.783,169.145,459.409,169.005,460.065z"/>
						<path style="fill:#AD6650;" d="M172.651,472.506c-0.102,0.479-0.511,0.798-0.915,0.713s-0.648-0.544-0.546-1.023
							c0.102-0.479,0.511-0.798,0.915-0.713C172.508,471.569,172.753,472.026,172.651,472.506z"/>
						<path style="fill:#AD6650;" d="M181.137,464.805c-0.243,1.144-1.22,1.905-2.183,1.701c-0.962-0.204-1.546-1.297-1.303-2.441
							c0.243-1.144,1.22-1.905,2.183-1.701C180.796,462.569,181.38,463.661,181.137,464.805z"/>
					</g>
					<g>
						<path style="fill:#AD6650;" d="M162.623,476.346c-0.139,0.656-0.7,1.093-1.251,0.975c-0.552-0.117-0.887-0.744-0.747-1.4
							c0.139-0.656,0.7-1.093,1.252-0.975C162.427,475.063,162.762,475.69,162.623,476.346z"/>
						<path style="fill:#AD6650;" d="M172.48,487.178c-0.102,0.479-0.511,0.798-0.915,0.713c-0.403-0.086-0.648-0.543-0.546-1.023
							c0.102-0.479,0.511-0.798,0.915-0.713S172.582,486.699,172.48,487.178z"/>
						<path style="fill:#AD6650;" d="M182.75,482.783c-0.243,1.144-1.22,1.905-2.182,1.701c-0.962-0.204-1.546-1.297-1.303-2.441
							c0.243-1.144,1.22-1.905,2.182-1.701C182.409,480.546,182.992,481.639,182.75,482.783z"/>
					</g>
					<g>
						<path style="fill:#AD6650;" d="M150.529,473.587c-0.561,0.162-1.095-0.231-1.194-0.878c-0.099-0.646,0.275-1.301,0.836-1.463
							c0.561-0.162,1.095,0.231,1.194,0.878C151.464,472.77,151.089,473.425,150.529,473.587z"/>
						<path style="fill:#AD6650;" d="M142.068,483.384c-0.41,0.118-0.8-0.169-0.873-0.641c-0.072-0.472,0.201-0.951,0.611-1.069
							c0.41-0.118,0.8,0.169,0.873,0.641C142.751,482.788,142.477,483.266,142.068,483.384z"/>
						<path style="fill:#AD6650;" d="M151.015,488.819c-0.978,0.282-1.91-0.403-2.083-1.53c-0.173-1.127,0.48-2.27,1.457-2.552
							c0.978-0.282,1.91,0.403,2.083,1.53S151.992,488.537,151.015,488.819z"/>
					</g>
					<g>
						<path style="fill:#AD6650;" d="M184.059,496.018c0.433,0.396,0.484,1.151,0.115,1.687c-0.37,0.536-1.02,0.65-1.453,0.254
							c-0.433-0.396-0.484-1.151-0.115-1.687C182.975,495.735,183.626,495.622,184.059,496.018z"/>
						<path style="fill:#AD6650;" d="M195.456,496.913c0.316,0.289,0.354,0.841,0.084,1.233c-0.27,0.392-0.745,0.475-1.062,0.185
							c-0.316-0.289-0.354-0.841-0.084-1.233C194.664,496.707,195.139,496.624,195.456,496.913z"/>
						<path style="fill:#AD6650;" d="M193.843,485.06c0.755,0.69,0.845,2.008,0.2,2.942c-0.645,0.935-1.779,1.133-2.534,0.442
							c-0.755-0.69-0.845-2.008-0.2-2.942C191.953,484.568,193.088,484.37,193.843,485.06z"/>
					</g>
				</g>
				<path style="opacity:0.1;fill:#FFFFFF;" d="M162.45,429.866l-0.016,0.002c0,0,2.7,3.677,2.536,8.717
					c6.25-4.346,10.926-10.978,12.631-19.008c3.559-16.763-7.162-33.241-23.945-36.804c-3.038-0.645-6.066-0.816-9.01-0.575
					C143.058,401.441,150.035,419.271,162.45,429.866z"/>
			</g>
			<g>
				<g>
					<path style="fill:#035AA6;" d="M593.717,515.816c0.645,2.103-0.548,4.352-2.651,4.997l-37.564,11.521
						c-2.103,0.645-4.352-0.548-4.997-2.651l-48.107-156.849c-0.645-2.103,0.548-4.352,2.651-4.997l37.564-11.521
						c2.103-0.645,4.352,0.548,4.997,2.651L593.717,515.816z"/>
					<g>
						<g>
							
								<rect x="502.515" y="372.923" transform="matrix(0.956 -0.2932 0.2932 0.956 -87.1809 170.8197)" style="fill:#D9AE5F;" width="47.291" height="6.539"/>
							
								<rect x="506.034" y="384.396" transform="matrix(0.956 -0.2932 0.2932 0.956 -90.3902 172.3557)" style="fill:#D9AE5F;" width="47.291" height="6.539"/>
						</g>
						<g>
							
								<rect x="540.79" y="497.715" transform="matrix(0.956 -0.2932 0.2932 0.956 -122.0904 187.5277)" style="fill:#D9AE5F;" width="47.291" height="6.539"/>
							
								<rect x="544.308" y="509.188" transform="matrix(0.956 -0.2932 0.2932 0.956 -125.2998 189.0639)" style="fill:#D9AE5F;" width="47.291" height="6.539"/>
						</g>
					</g>
					
						<rect x="541.545" y="400.116" transform="matrix(0.956 -0.2932 0.2932 0.956 -106.1816 179.9126)" style="fill:#4083B5;" width="10.898" height="88"/>
					<path style="opacity:0.1;fill:#061726;" d="M540.613,356.315l-9.205,2.823c2.103-0.645,4.352,0.548,4.997,2.651l48.107,156.849
						c0.645,2.103-0.548,4.352-2.651,4.997l9.204-2.823c2.103-0.645,3.296-2.894,2.651-4.997l-48.107-156.85
						C544.965,356.863,542.716,355.67,540.613,356.315z"/>
				</g>
				<g>
					<path style="fill:#BF7C63;" d="M635.706,511.896c0.332,2.175-1.175,4.226-3.35,4.558l-38.841,5.933
						c-2.175,0.332-4.226-1.176-4.558-3.35l-24.771-162.18c-0.332-2.175,1.175-4.226,3.35-4.558l38.841-5.932
						c2.175-0.332,4.226,1.176,4.558,3.35L635.706,511.896z"/>
					<g>
						<g>
							
								<rect x="565.54" y="360.659" transform="matrix(0.9885 -0.151 0.151 0.9885 -48.1936 93.1311)" style="fill:#D9AE5F;" width="47.291" height="6.539"/>
						</g>
						<g>
							
								<rect x="587.06" y="501.554" transform="matrix(0.9885 -0.151 0.151 0.9885 -69.2212 97.9972)" style="fill:#D9AE5F;" width="47.291" height="6.539"/>
						</g>
					</g>
					
						<rect x="594.464" y="390.16" transform="matrix(0.9885 -0.151 0.151 0.9885 -58.6755 95.5572)" style="fill:#B25B40;" width="10.898" height="88"/>
					<path style="opacity:0.1;fill:#061726;" d="M606.377,346.365l-9.517,1.454c2.175-0.332,4.226,1.175,4.558,3.35l24.771,162.18
						c0.332,2.175-1.175,4.226-3.35,4.558l9.517-1.454c2.175-0.332,3.682-2.383,3.35-4.558l-24.771-162.18
						C610.602,347.541,608.551,346.033,606.377,346.365z"/>
				</g>
			</g>
			<g>
				<g>
					<g>
						<g>
							<path style="fill:#6980AF;" d="M302.749,520.909c-2.02-7.266-4.94-14.355-8.021-21.22
								c-6.827-15.21-15.518-29.724-26.436-42.36c-7.15-8.275-15.302-15.689-24.458-21.69c-0.717-0.47-1.383,0.68-0.67,1.147
								c15.782,10.345,28.401,24.881,38.329,40.806c7.135,11.445,13.048,23.709,17.595,36.408c0.858,2.395,1.7,4.81,2.381,7.263
								C301.697,522.086,302.979,521.735,302.749,520.909L302.749,520.909z"/>
						</g>
						<g>
							<path style="fill:#6980AF;" d="M252.29,442.228c0,0-26.526-6.588-19.986-15.192
								C238.844,418.432,252.29,442.228,252.29,442.228z"/>
							<path style="opacity:0.1;fill:#061726;" d="M232.304,427.036c-1.062,1.397-1.242,2.74-0.815,4.012
								c0.104-0.168,0.198-0.335,0.326-0.504c4.694-6.175,12.945,4.34,17.229,10.768c1.947,0.594,3.245,0.917,3.245,0.917
								S238.844,418.432,232.304,427.036z"/>
						</g>
						<g>
							<g>
								<path style="fill:#6980AF;" d="M261.741,450.707c0,0-25.761,9.132-25.05-1.652
									C237.402,438.271,261.741,450.707,261.741,450.707z"/>
								<path style="opacity:0.1;fill:#061726;" d="M236.691,449.056c-0.115,1.751,0.476,2.97,1.533,3.796
									c-0.006-0.197-0.02-0.388-0.006-0.6c0.51-7.74,13.192-3.519,20.311-0.519c1.952-0.578,3.212-1.025,3.212-1.025
									S237.402,438.271,236.691,449.056z"/>
							</g>
							<g>
								<path style="fill:#6980AF;" d="M261.103,449.915c0,0-16.399-21.866-5.894-24.403
									C265.714,422.974,261.103,449.915,261.103,449.915z"/>
								<path style="opacity:0.1;fill:#061726;" d="M255.209,425.512c-1.706,0.412-2.694,1.34-3.166,2.595
									c0.186-0.065,0.365-0.135,0.572-0.185c7.54-1.821,7.293,11.543,6.552,19.232c1.134,1.691,1.936,2.761,1.936,2.761
									S265.714,422.974,255.209,425.512z"/>
							</g>
						</g>
						<g>
							<g>
								<path style="fill:#6980AF;" d="M274.074,464.739c0,0-26.934,4.648-24.411-5.861
									C252.186,448.37,274.074,464.739,274.074,464.739z"/>
								<path style="opacity:0.1;fill:#061726;" d="M249.663,458.878c-0.41,1.707-0.033,3.008,0.869,4
									c0.027-0.195,0.046-0.386,0.096-0.593c1.811-7.543,13.597-1.239,20.107,2.92c2.022-0.24,3.339-0.467,3.339-0.467
									S252.186,448.369,249.663,458.878z"/>
							</g>
							<g>
								<path style="fill:#6980AF;" d="M273.58,463.85c0,0-12.469-24.322-1.686-25.048C282.677,438.076,273.58,463.85,273.58,463.85
									z"/>
								<path style="opacity:0.1;fill:#061726;" d="M271.894,438.802c-1.751,0.118-2.881,0.865-3.559,2.023
									c0.194-0.032,0.382-0.071,0.594-0.086c7.74-0.521,5.238,12.609,3.209,20.063c0.832,1.858,1.442,3.048,1.442,3.048
									S282.677,438.076,271.894,438.802z"/>
							</g>
						</g>
						<g>
							<g>
								<path style="fill:#6980AF;" d="M284.517,480.832c0,0-27.327,0.552-23.255-9.459
									C265.335,461.363,284.517,480.832,284.517,480.832z"/>
								<path style="opacity:0.1;fill:#061726;" d="M261.263,471.374c-0.661,1.626-0.484,2.969,0.259,4.085
									c0.056-0.189,0.104-0.375,0.184-0.572c2.923-7.185,13.629,0.816,19.44,5.906c2.035,0.066,3.372,0.039,3.372,0.039
									S265.335,461.363,261.263,471.374z"/>
							</g>
							<g>
								<path style="fill:#6980AF;" d="M284.162,479.879c0,0-8.677-25.918,2.093-25.017
									C297.025,455.763,284.162,479.879,284.162,479.879z"/>
								<path style="opacity:0.1;fill:#061726;" d="M286.255,454.862c-1.749-0.146-2.978,0.423-3.822,1.466
									c0.197-0.003,0.389-0.013,0.601,0.005c7.73,0.647,3.285,13.252,0.161,20.317c0.544,1.962,0.968,3.23,0.968,3.23
									S297.025,455.763,286.255,454.862z"/>
							</g>
						</g>
						<g>
							<g>
								<path style="fill:#6980AF;" d="M293.347,498.978c0,0-27.122-3.387-21.651-12.707
									C277.166,476.95,293.347,498.978,293.347,498.978z"/>
								<path style="opacity:0.1;fill:#061726;" d="M271.696,486.27c-0.889,1.514-0.907,2.868-0.332,4.08
									c0.083-0.179,0.156-0.356,0.264-0.539c3.926-6.69,13.37,2.769,18.388,8.642c2.004,0.358,3.331,0.524,3.331,0.524
									S277.166,476.95,271.696,486.27z"/>
							</g>
							<g>
								<path style="fill:#6980AF;" d="M293.132,497.983c0,0-4.856-26.897,5.672-24.455
									C309.332,475.969,293.132,497.983,293.132,497.983z"/>
								<path style="opacity:0.1;fill:#061726;" d="M298.804,473.528c-1.71-0.397-3.008-0.01-3.993,0.9
									c0.195,0.026,0.386,0.043,0.594,0.091c7.556,1.753,1.344,13.587-2.765,20.128c0.256,2.02,0.493,3.336,0.493,3.336
									S309.332,475.969,298.804,473.528z"/>
							</g>
						</g>
						<g>
							<g>
								<path style="fill:#6980AF;" d="M300.02,514.217c0,0-27.132-3.299-21.692-12.638
									C283.769,492.241,300.02,514.217,300.02,514.217z"/>
								<path style="opacity:0.1;fill:#061726;" d="M278.328,501.58c-0.884,1.517-0.898,2.871-0.319,4.081
									c0.082-0.179,0.155-0.356,0.262-0.54c3.905-6.703,13.378,2.726,18.415,8.583c2.005,0.352,3.333,0.514,3.333,0.514
									S283.769,492.241,278.328,501.58z"/>
							</g>
							<g>
								<path style="fill:#6980AF;" d="M299.802,513.224c0,0-4.942-26.882,5.594-24.474
									C315.931,491.158,299.802,513.224,299.802,513.224z"/>
								<path style="opacity:0.1;fill:#061726;" d="M305.396,488.75c-1.711-0.391-3.008,0-3.99,0.913
									c0.195,0.025,0.387,0.042,0.594,0.089c7.562,1.728,1.388,13.583-2.701,20.137c0.262,2.019,0.504,3.334,0.504,3.334
									S315.932,491.158,305.396,488.75z"/>
							</g>
						</g>
					</g>
					<g>
						<g>
							<path style="fill:#6980AF;" d="M275.285,524.352c-2.839-5.112-6.325-9.927-9.893-14.545
								c-7.903-10.23-17.085-19.598-27.606-27.147c-6.89-4.943-14.379-9.056-22.37-11.922c-0.625-0.224-0.919,0.763-0.298,0.986
								c13.773,4.94,25.921,13.613,36.292,23.821c7.453,7.336,14.133,15.511,19.862,24.261c1.081,1.65,2.153,3.319,3.111,5.044
								C274.705,525.429,275.608,524.933,275.285,524.352L275.285,524.352z"/>
						</g>
						<g>
							<path style="fill:#6980AF;" d="M222.986,474.174c0,0-21.193-0.161-17.821-7.833
								C208.537,458.669,222.986,474.174,222.986,474.174z"/>
							<path style="opacity:0.1;fill:#061726;" d="M205.165,466.341c-0.548,1.246-0.439,2.291,0.113,3.172
								c0.048-0.145,0.088-0.288,0.155-0.439c2.42-5.506,10.546,0.926,14.941,4.997c1.576,0.095,2.613,0.103,2.613,0.103
								S208.537,458.669,205.165,466.341z"/>
						</g>
						<g>
							<g>
								<path style="fill:#6980AF;" d="M231.647,478.854c0,0-17.768,11.553-19.185,3.294
									C211.044,473.888,231.647,478.854,231.647,478.854z"/>
								<path style="opacity:0.1;fill:#061726;" d="M212.462,482.148c0.23,1.341,0.897,2.153,1.843,2.584
									c-0.04-0.147-0.085-0.289-0.113-0.452c-1.018-5.928,9.309-5.043,15.219-4.071c1.367-0.79,2.236-1.354,2.236-1.354
									S211.044,473.888,212.462,482.148z"/>
							</g>
							<g>
								<path style="fill:#6980AF;" d="M231.023,478.372c0,0-16.326-13.514-8.865-17.33
									C229.618,457.225,231.023,478.372,231.023,478.372z"/>
								<path style="opacity:0.1;fill:#061726;" d="M222.158,461.042c-1.212,0.62-1.788,1.498-1.917,2.53
									c0.129-0.082,0.251-0.168,0.397-0.243c5.355-2.739,7.59,7.381,8.425,13.312c1.161,1.069,1.96,1.73,1.96,1.73
									S229.618,457.225,222.158,461.042z"/>
							</g>
						</g>
						<g>
							<g>
								<path style="fill:#6980AF;" d="M243.489,487.198c0,0-19.464,8.384-19.466,0.004
									C224.02,478.823,243.489,487.198,243.489,487.198z"/>
								<path style="opacity:0.1;fill:#061726;" d="M224.022,487.203c0,1.361,0.52,2.274,1.38,2.858
									c-0.015-0.152-0.035-0.299-0.035-0.464c-0.001-6.015,10.027-3.398,15.688-1.441c1.481-0.547,2.433-0.957,2.433-0.957
									S224.02,478.823,224.022,487.203z"/>
							</g>
							<g>
								<path style="fill:#6980AF;" d="M242.954,486.618c0,0-13.808-16.078-5.81-18.579
									C245.143,465.538,242.954,486.618,242.954,486.618z"/>
								<path style="opacity:0.1;fill:#061726;" d="M237.145,468.039c-1.299,0.406-2.015,1.174-2.317,2.17
									c0.141-0.059,0.275-0.123,0.433-0.172c5.741-1.795,6.233,8.557,6.054,14.544c0.964,1.25,1.639,2.037,1.639,2.037
									S245.143,465.538,237.145,468.039z"/>
							</g>
						</g>
						<g>
							<g>
								<path style="fill:#6980AF;" d="M254.278,497.44c0,0-20.502,5.368-19.246-2.918
									C236.288,486.236,254.278,497.44,254.278,497.44z"/>
								<path style="opacity:0.1;fill:#061726;" d="M235.032,494.522c-0.204,1.346,0.173,2.326,0.935,3.033
									c0.008-0.153,0.01-0.301,0.035-0.464c0.901-5.947,10.423-1.854,15.727,0.93c1.546-0.319,2.549-0.581,2.549-0.581
									S236.288,486.236,235.032,494.522z"/>
							</g>
							<g>
								<path style="fill:#6980AF;" d="M253.837,496.785c0,0-11.238-17.969-2.955-19.241
									C259.165,476.273,253.837,496.785,253.837,496.785z"/>
								<path style="opacity:0.1;fill:#061726;" d="M250.882,477.545c-1.345,0.207-2.169,0.859-2.616,1.797
									c0.148-0.038,0.291-0.08,0.454-0.105c5.945-0.913,4.878,9.396,3.802,15.289c0.765,1.381,1.315,2.26,1.315,2.26
									S259.165,476.273,250.882,477.545z"/>
							</g>
						</g>
						<g>
							<g>
								<path style="fill:#6980AF;" d="M264.222,509.52c0,0-21.061,2.361-18.626-5.658
									C248.032,495.844,264.222,509.52,264.222,509.52z"/>
								<path style="opacity:0.1;fill:#061726;" d="M245.596,503.863c-0.396,1.302-0.164,2.327,0.489,3.136
									c0.03-0.15,0.053-0.297,0.101-0.455c1.748-5.755,10.582-0.335,15.429,3.184c1.576-0.093,2.606-0.208,2.606-0.208
									S248.032,495.844,245.596,503.863z"/>
							</g>
							<g>
								<path style="fill:#6980AF;" d="M263.88,508.809c0,0-8.535-19.399-0.155-19.466
									C272.105,489.277,263.88,508.809,263.88,508.809z"/>
								<path style="opacity:0.1;fill:#061726;" d="M263.726,489.344c-1.361,0.011-2.27,0.538-2.848,1.402
									c0.152-0.016,0.299-0.038,0.464-0.039c6.015-0.048,3.475,10,1.562,15.677c0.559,1.476,0.976,2.426,0.976,2.426
									S272.105,489.277,263.726,489.344z"/>
							</g>
						</g>
						<g>
							<g>
								<path style="fill:#6980AF;" d="M272.015,519.801c0,0-21.054,2.429-18.644-5.598
									C255.781,506.177,272.015,519.801,272.015,519.801z"/>
								<path style="opacity:0.1;fill:#061726;" d="M253.371,514.203c-0.391,1.304-0.157,2.327,0.499,3.135
									c0.03-0.15,0.052-0.297,0.1-0.455c1.73-5.761,10.58-0.368,15.439,3.135c1.576-0.098,2.606-0.217,2.606-0.217
									S255.781,506.177,253.371,514.203z"/>
							</g>
							<g>
								<path style="fill:#6980AF;" d="M271.671,519.091c0,0-8.597-19.371-0.217-19.465S271.671,519.091,271.671,519.091z"/>
								<path style="opacity:0.1;fill:#061726;" d="M271.453,499.626c-1.361,0.015-2.268,0.545-2.843,1.411
									c0.152-0.017,0.299-0.039,0.464-0.04c6.014-0.067,3.507,9.989,1.613,15.671c0.564,1.475,0.984,2.422,0.984,2.422
									S279.833,499.533,271.453,499.626z"/>
							</g>
						</g>
					</g>
				</g>
				<g>
					<g>
						<g>
							<path style="fill:#6980AF;" d="M447.251,520.909c2.02-7.266,4.94-14.355,8.021-21.22c6.827-15.21,15.518-29.724,26.436-42.36
								c7.15-8.275,15.302-15.689,24.458-21.69c0.717-0.47,1.383,0.68,0.67,1.147c-15.782,10.345-28.401,24.881-38.329,40.806
								c-7.135,11.445-13.048,23.709-17.595,36.408c-0.858,2.395-1.7,4.81-2.381,7.263
								C448.303,522.086,447.021,521.735,447.251,520.909L447.251,520.909z"/>
						</g>
						<g>
							<path style="fill:#6980AF;" d="M497.71,442.228c0,0,26.526-6.588,19.986-15.192
								C511.156,418.432,497.71,442.228,497.71,442.228z"/>
							<path style="opacity:0.1;fill:#061726;" d="M517.696,427.036c1.062,1.397,1.242,2.74,0.815,4.012
								c-0.104-0.168-0.198-0.335-0.326-0.504c-4.694-6.175-12.945,4.34-17.229,10.768c-1.947,0.594-3.245,0.917-3.245,0.917
								S511.156,418.432,517.696,427.036z"/>
						</g>
						<g>
							<g>
								<path style="fill:#6980AF;" d="M488.259,450.707c0,0,25.761,9.132,25.05-1.652
									C512.598,438.271,488.259,450.707,488.259,450.707z"/>
								<path style="opacity:0.1;fill:#061726;" d="M513.309,449.056c0.116,1.751-0.475,2.97-1.533,3.796
									c0.006-0.197,0.02-0.388,0.006-0.6c-0.51-7.74-13.192-3.519-20.311-0.519c-1.952-0.578-3.212-1.025-3.212-1.025
									S512.598,438.271,513.309,449.056z"/>
							</g>
							<g>
								<path style="fill:#6980AF;" d="M488.897,449.915c0,0,16.399-21.866,5.894-24.403
									C484.286,422.974,488.897,449.915,488.897,449.915z"/>
								<path style="opacity:0.1;fill:#061726;" d="M494.791,425.512c1.706,0.412,2.694,1.34,3.166,2.595
									c-0.186-0.065-0.365-0.135-0.572-0.185c-7.54-1.821-7.293,11.543-6.552,19.232c-1.134,1.691-1.936,2.761-1.936,2.761
									S484.286,422.974,494.791,425.512z"/>
							</g>
						</g>
						<g>
							<g>
								<path style="fill:#6980AF;" d="M475.926,464.739c0,0,26.934,4.648,24.411-5.861S475.926,464.739,475.926,464.739z"/>
								<path style="opacity:0.1;fill:#061726;" d="M500.336,458.878c0.41,1.707,0.033,3.008-0.869,4
									c-0.027-0.195-0.046-0.386-0.096-0.593c-1.811-7.543-13.597-1.239-20.107,2.92c-2.022-0.24-3.339-0.467-3.339-0.467
									S497.813,448.369,500.336,458.878z"/>
							</g>
							<g>
								<path style="fill:#6980AF;" d="M476.42,463.85c0,0,12.469-24.322,1.686-25.048C467.323,438.076,476.42,463.85,476.42,463.85
									z"/>
								<path style="opacity:0.1;fill:#061726;" d="M478.106,438.802c1.751,0.118,2.881,0.865,3.559,2.023
									c-0.194-0.032-0.382-0.071-0.595-0.086c-7.74-0.521-5.238,12.609-3.209,20.063c-0.832,1.858-1.442,3.048-1.442,3.048
									S467.323,438.076,478.106,438.802z"/>
							</g>
						</g>
						<g>
							<g>
								<path style="fill:#6980AF;" d="M465.483,480.832c0,0,27.327,0.552,23.255-9.459
									C484.665,461.363,465.483,480.832,465.483,480.832z"/>
								<path style="opacity:0.1;fill:#061726;" d="M488.737,471.374c0.661,1.626,0.484,2.969-0.259,4.085
									c-0.056-0.189-0.104-0.375-0.184-0.572c-2.923-7.185-13.629,0.816-19.44,5.906c-2.035,0.066-3.372,0.039-3.372,0.039
									S484.665,461.363,488.737,471.374z"/>
							</g>
							<g>
								<path style="fill:#6980AF;" d="M465.838,479.879c0,0,8.677-25.918-2.093-25.017
									C452.975,455.763,465.838,479.879,465.838,479.879z"/>
								<path style="opacity:0.1;fill:#061726;" d="M463.745,454.862c1.749-0.146,2.979,0.423,3.822,1.466
									c-0.197-0.003-0.388-0.013-0.6,0.005c-7.73,0.647-3.286,13.252-0.161,20.317c-0.544,1.962-0.968,3.23-0.968,3.23
									S452.975,455.763,463.745,454.862z"/>
							</g>
						</g>
						<g>
							<g>
								<path style="fill:#6980AF;" d="M456.653,498.978c0,0,27.121-3.387,21.651-12.707
									C472.834,476.95,456.653,498.978,456.653,498.978z"/>
								<path style="opacity:0.1;fill:#061726;" d="M478.304,486.27c0.888,1.514,0.907,2.868,0.332,4.08
									c-0.083-0.179-0.156-0.356-0.264-0.539c-3.926-6.69-13.37,2.769-18.388,8.642c-2.004,0.358-3.331,0.524-3.331,0.524
									S472.834,476.95,478.304,486.27z"/>
							</g>
							<g>
								<path style="fill:#6980AF;" d="M456.868,497.983c0,0,4.856-26.897-5.672-24.455
									C440.668,475.969,456.868,497.983,456.868,497.983z"/>
								<path style="opacity:0.1;fill:#061726;" d="M451.196,473.528c1.71-0.397,3.008-0.01,3.993,0.9
									c-0.196,0.026-0.386,0.043-0.594,0.091c-7.556,1.753-1.344,13.587,2.765,20.128c-0.256,2.02-0.493,3.336-0.493,3.336
									S440.668,475.969,451.196,473.528z"/>
							</g>
						</g>
						<g>
							<g>
								<path style="fill:#6980AF;" d="M449.98,514.217c0,0,27.132-3.299,21.692-12.638
									C466.231,492.241,449.98,514.217,449.98,514.217z"/>
								<path style="opacity:0.1;fill:#061726;" d="M471.671,501.58c0.884,1.517,0.898,2.871,0.319,4.081
									c-0.082-0.179-0.155-0.356-0.262-0.54c-3.905-6.703-13.378,2.726-18.415,8.583c-2.005,0.352-3.332,0.514-3.332,0.514
									S466.231,492.241,471.671,501.58z"/>
							</g>
							<g>
								<path style="fill:#6980AF;" d="M450.198,513.224c0,0,4.942-26.882-5.594-24.474
									C434.068,491.158,450.198,513.224,450.198,513.224z"/>
								<path style="opacity:0.1;fill:#061726;" d="M444.604,488.75c1.711-0.391,3.008,0,3.991,0.913
									c-0.195,0.025-0.387,0.042-0.594,0.089c-7.562,1.728-1.388,13.583,2.701,20.137c-0.262,2.019-0.504,3.334-0.504,3.334
									S434.068,491.158,444.604,488.75z"/>
							</g>
						</g>
					</g>
					<g>
						<g>
							<path style="fill:#6980AF;" d="M474.715,524.352c2.839-5.112,6.325-9.927,9.892-14.545
								c7.903-10.23,17.085-19.598,27.607-27.147c6.89-4.943,14.379-9.056,22.37-11.922c0.625-0.224,0.919,0.763,0.298,0.986
								c-13.773,4.94-25.921,13.613-36.292,23.821c-7.453,7.336-14.133,15.511-19.862,24.261c-1.081,1.65-2.153,3.319-3.111,5.044
								C475.295,525.429,474.392,524.933,474.715,524.352L474.715,524.352z"/>
						</g>
						<g>
							<path style="fill:#6980AF;" d="M527.014,474.174c0,0,21.193-0.161,17.821-7.833
								C541.463,458.669,527.014,474.174,527.014,474.174z"/>
							<path style="opacity:0.1;fill:#061726;" d="M544.835,466.341c0.548,1.246,0.44,2.291-0.113,3.172
								c-0.048-0.145-0.088-0.288-0.155-0.439c-2.42-5.506-10.546,0.926-14.941,4.997c-1.576,0.095-2.612,0.103-2.612,0.103
								S541.463,458.669,544.835,466.341z"/>
						</g>
						<g>
							<g>
								<path style="fill:#6980AF;" d="M518.352,478.854c0,0,17.768,11.553,19.186,3.294
									C538.956,473.888,518.352,478.854,518.352,478.854z"/>
								<path style="opacity:0.1;fill:#061726;" d="M537.538,482.148c-0.23,1.341-0.897,2.153-1.843,2.584
									c0.04-0.147,0.085-0.289,0.113-0.452c1.018-5.928-9.309-5.043-15.219-4.071c-1.367-0.79-2.236-1.354-2.236-1.354
									S538.956,473.888,537.538,482.148z"/>
							</g>
							<g>
								<path style="fill:#6980AF;" d="M518.977,478.372c0,0,16.326-13.514,8.865-17.33
									C520.382,457.225,518.977,478.372,518.977,478.372z"/>
								<path style="opacity:0.1;fill:#061726;" d="M527.842,461.042c1.212,0.62,1.788,1.498,1.917,2.53
									c-0.129-0.082-0.251-0.168-0.397-0.243c-5.355-2.739-7.59,7.381-8.425,13.312c-1.161,1.069-1.96,1.73-1.96,1.73
									S520.382,457.225,527.842,461.042z"/>
							</g>
						</g>
						<g>
							<g>
								<path style="fill:#6980AF;" d="M506.511,487.198c0,0,19.464,8.384,19.466,0.004S506.511,487.198,506.511,487.198z"/>
								<path style="opacity:0.1;fill:#061726;" d="M525.978,487.203c0,1.361-0.52,2.274-1.38,2.858
									c0.015-0.152,0.035-0.299,0.035-0.464c0.001-6.015-10.027-3.398-15.688-1.441c-1.481-0.547-2.433-0.957-2.433-0.957
									S525.979,478.823,525.978,487.203z"/>
							</g>
							<g>
								<path style="fill:#6980AF;" d="M507.046,486.618c0,0,13.808-16.078,5.81-18.579
									C504.857,465.538,507.046,486.618,507.046,486.618z"/>
								<path style="opacity:0.1;fill:#061726;" d="M512.855,468.039c1.299,0.406,2.015,1.174,2.317,2.17
									c-0.141-0.059-0.275-0.123-0.433-0.172c-5.741-1.795-6.233,8.557-6.054,14.544c-0.964,1.25-1.639,2.037-1.639,2.037
									S504.857,465.538,512.855,468.039z"/>
							</g>
						</g>
						<g>
							<g>
								<path style="fill:#6980AF;" d="M495.722,497.44c0,0,20.502,5.368,19.246-2.918
									C513.712,486.236,495.722,497.44,495.722,497.44z"/>
								<path style="opacity:0.1;fill:#061726;" d="M514.968,494.522c0.204,1.346-0.173,2.326-0.935,3.033
									c-0.008-0.153-0.01-0.301-0.035-0.464c-0.901-5.947-10.423-1.854-15.727,0.93c-1.546-0.319-2.549-0.581-2.549-0.581
									S513.712,486.236,514.968,494.522z"/>
							</g>
							<g>
								<path style="fill:#6980AF;" d="M496.163,496.785c0,0,11.238-17.969,2.955-19.241
									C490.835,476.273,496.163,496.785,496.163,496.785z"/>
								<path style="opacity:0.1;fill:#061726;" d="M499.118,477.545c1.345,0.207,2.169,0.859,2.616,1.797
									c-0.148-0.038-0.291-0.08-0.454-0.105c-5.945-0.913-4.878,9.396-3.802,15.289c-0.766,1.381-1.315,2.26-1.315,2.26
									S490.835,476.273,499.118,477.545z"/>
							</g>
						</g>
						<g>
							<g>
								<path style="fill:#6980AF;" d="M485.778,509.52c0,0,21.061,2.361,18.626-5.658
									C501.968,495.844,485.778,509.52,485.778,509.52z"/>
								<path style="opacity:0.1;fill:#061726;" d="M504.403,503.863c0.396,1.302,0.164,2.327-0.489,3.136
									c-0.03-0.15-0.053-0.297-0.101-0.455c-1.748-5.755-10.582-0.335-15.429,3.184c-1.576-0.093-2.606-0.208-2.606-0.208
									S501.968,495.844,504.403,503.863z"/>
							</g>
							<g>
								<path style="fill:#6980AF;" d="M486.12,508.809c0,0,8.535-19.399,0.155-19.466
									C477.895,489.277,486.12,508.809,486.12,508.809z"/>
								<path style="opacity:0.1;fill:#061726;" d="M486.274,489.344c1.361,0.011,2.27,0.538,2.848,1.402
									c-0.152-0.016-0.299-0.038-0.464-0.039c-6.015-0.048-3.475,10-1.562,15.677c-0.559,1.476-0.976,2.426-0.976,2.426
									S477.895,489.277,486.274,489.344z"/>
							</g>
						</g>
						<g>
							<g>
								<path style="fill:#6980AF;" d="M477.985,519.801c0,0,21.054,2.429,18.644-5.598
									C494.219,506.177,477.985,519.801,477.985,519.801z"/>
								<path style="opacity:0.1;fill:#061726;" d="M496.629,514.203c0.391,1.304,0.156,2.327-0.499,3.135
									c-0.03-0.15-0.052-0.297-0.1-0.455c-1.73-5.761-10.58-0.368-15.439,3.135c-1.576-0.098-2.606-0.217-2.606-0.217
									S494.219,506.177,496.629,514.203z"/>
							</g>
							<g>
								<path style="fill:#6980AF;" d="M478.329,519.091c0,0,8.597-19.371,0.217-19.465
									C470.167,499.533,478.329,519.091,478.329,519.091z"/>
								<path style="opacity:0.1;fill:#061726;" d="M478.547,499.626c1.361,0.015,2.268,0.545,2.843,1.411
									c-0.152-0.017-0.299-0.039-0.464-0.04c-6.014-0.067-3.507,9.989-1.613,15.671c-0.564,1.475-0.984,2.422-0.984,2.422
									S470.167,499.533,478.547,499.626z"/>
							</g>
						</g>
					</g>
				</g>
			</g>
			<g>
				<g>
					<path style="fill:#B0BAD9;" d="M778.247,351.136c0,0,22.726,5.675,15.354,31.241l-22.492-6.486L778.247,351.136z"/>
					<path style="fill:#DAE1F2;" d="M686.339,324.633l-0.012,0.042c-25.534-6.397-29.619,18.227-29.619,18.227l-44.764,155.234
						l114.4,32.989l51.902-179.989L686.339,324.633z"/>
					<path style="opacity:0.1;fill:#061726;" d="M755.102,344.461c-0.563,11.43-2.485,23.229-5.899,35.07
						c-17.709,61.412-68.71,100.628-113.915,87.593c-4.528-1.306-8.821-3.094-12.872-5.302l-10.472,36.314l114.4,32.989
						l51.902-179.989L755.102,344.461z"/>
					<path style="fill:#B0BAD9;" d="M710.992,499.881l-91.908-26.503l-22.492-6.486c-7.372,25.566,15.354,31.241,15.354,31.241
						l113.923,32.851C722.663,530,704.251,523.257,710.992,499.881z"/>
				</g>
				<g>
					<g>
						<g>
							<polygon style="fill:#D9AE5F;" points="694.452,374.228 695.327,367.766 689.391,365.066 710.5,353.406 715.561,362.569 
															"/>
							<polygon style="fill:#D9AE5F;" points="719.729,381.517 722.429,375.581 728.891,376.457 717.231,355.347 708.069,360.408 
															"/>
						</g>
						<g>
							<path style="fill:#035AA6;" d="M726.545,362.61c-0.289,1.003-2.186,1.326-2.67,2.203c-0.5,0.905,0.23,2.68-0.444,3.433
								c-0.685,0.765-2.533,0.233-3.363,0.821c-0.834,0.59-0.946,2.509-1.889,2.9c-0.939,0.389-2.374-0.887-3.387-0.714
								c-0.996,0.17-1.928,1.852-2.961,1.793c-1-0.057-1.736-1.829-2.739-2.118c-1.003-0.289-2.57,0.818-3.447,0.334
								c-0.906-0.5-0.799-2.421-1.551-3.094c-0.765-0.685-2.659-0.37-3.247-1.199c-0.59-0.834,0.337-2.517-0.055-3.461
								c-0.389-0.939-2.237-1.473-2.409-2.485c-0.17-0.996,1.393-2.109,1.452-3.142c0.057-1-1.376-2.283-1.087-3.286
								c0.289-1.003,2.186-1.326,2.67-2.203c0.5-0.906-0.23-2.68,0.444-3.433c0.685-0.765,2.533-0.233,3.363-0.821
								c0.834-0.591,0.946-2.509,1.889-2.901c0.939-0.389,2.374,0.887,3.387,0.714c0.996-0.17,1.928-1.852,2.961-1.793
								c1,0.057,1.736,1.829,2.739,2.118c1.003,0.289,2.57-0.818,3.447-0.334c0.906,0.5,0.799,2.42,1.551,3.095
								c0.765,0.685,2.659,0.369,3.247,1.199c0.59,0.834-0.337,2.517,0.055,3.461c0.389,0.939,2.237,1.473,2.409,2.485
								c0.17,0.996-1.393,2.109-1.452,3.142C725.401,360.324,726.834,361.607,726.545,362.61z"/>
							<path style="fill:#8294BF;" d="M723.067,361.607c-0.217,0.752-1.639,0.994-2.002,1.652c-0.375,0.679,0.172,2.009-0.333,2.574
								c-0.514,0.574-1.899,0.175-2.521,0.616c-0.625,0.443-0.709,1.881-1.417,2.175c-0.704,0.292-1.78-0.665-2.539-0.535
								c-0.747,0.127-1.446,1.389-2.22,1.344c-0.75-0.043-1.302-1.371-2.054-1.588c-0.752-0.217-1.927,0.613-2.584,0.25
								c-0.679-0.375-0.599-1.815-1.163-2.32c-0.573-0.514-1.994-0.277-2.434-0.899c-0.443-0.625,0.252-1.887-0.041-2.595
								c-0.292-0.704-1.677-1.104-1.806-1.863c-0.127-0.747,1.044-1.581,1.089-2.355c0.043-0.75-1.032-1.712-0.815-2.464
								c0.217-0.752,1.639-0.994,2.001-1.652c0.375-0.679-0.172-2.009,0.333-2.574c0.514-0.574,1.899-0.175,2.521-0.615
								c0.625-0.443,0.709-1.881,1.417-2.175c0.704-0.292,1.78,0.665,2.539,0.535c0.747-0.127,1.446-1.389,2.22-1.344
								c0.75,0.043,1.302,1.371,2.054,1.588c0.752,0.217,1.927-0.613,2.584-0.25c0.679,0.375,0.599,1.815,1.163,2.32
								c0.574,0.514,1.994,0.277,2.434,0.899c0.443,0.625-0.252,1.887,0.041,2.595c0.292,0.704,1.677,1.105,1.806,1.863
								c0.127,0.747-1.044,1.581-1.089,2.355C722.209,359.893,723.284,360.855,723.067,361.607z"/>
						</g>
					</g>
					<g>
						<g>
							
								<rect x="703.249" y="343.796" transform="matrix(0.2771 -0.9608 0.9608 0.2771 130.9354 960.6414)" style="fill:#8294BF;" width="1.236" height="99.022"/>
						</g>
						<g>
							
								<rect x="699.824" y="355.675" transform="matrix(0.2771 -0.9608 0.9608 0.2771 117.0454 965.9376)" style="fill:#8294BF;" width="1.236" height="99.022"/>
						</g>
					</g>
					<g>
						<g>
							
								<rect x="696.398" y="367.553" transform="matrix(0.2771 -0.9608 0.9608 0.2771 103.1555 971.2339)" style="fill:#8294BF;" width="1.236" height="99.022"/>
						</g>
						<g>
							
								<rect x="692.973" y="379.432" transform="matrix(0.2771 -0.9608 0.9608 0.2771 89.2654 976.5301)" style="fill:#8294BF;" width="1.236" height="99.022"/>
						</g>
					</g>
					<g>
						<g>
							
								<rect x="689.547" y="391.311" transform="matrix(0.2771 -0.9608 0.9608 0.2771 75.3754 981.8263)" style="fill:#8294BF;" width="1.236" height="99.022"/>
						</g>
						<g>
							
								<rect x="686.122" y="403.19" transform="matrix(0.2771 -0.9608 0.9608 0.2771 61.4859 987.1231)" style="fill:#8294BF;" width="1.236" height="99.022"/>
						</g>
					</g>
					<g>
						<g>
							
								<rect x="682.697" y="415.069" transform="matrix(0.2771 -0.9608 0.9608 0.2771 47.5959 992.4193)" style="fill:#8294BF;" width="1.236" height="99.022"/>
						</g>
						<g>
							
								<rect x="679.271" y="426.947" transform="matrix(0.2771 -0.9608 0.9608 0.2771 33.7058 997.7155)" style="fill:#8294BF;" width="1.236" height="99.022"/>
						</g>
					</g>
				</g>
			</g>
			<g>
				<polygon style="fill:#035AA6;" points="802.48,410.84 712.573,313.217 728.439,299.499 812.051,402.565 				"/>
				<polygon style="fill:#D9AE5F;" points="728.439,299.499 712.573,313.217 702.373,295.058 711.943,286.783 				"/>
				<path style="fill:#B0BAD9;" d="M683.524,261.995l14.967,17.31l-1.574,1.361l-14.967-17.311
					c3.107,27.286,20.424,31.703,20.424,31.703l4.785-4.137l4.785-4.137C711.943,286.783,710.073,269.01,683.524,261.995z"/>
				<polygon style="opacity:0.1;fill:#061726;" points="708.376,289.867 702.373,295.058 712.573,313.217 802.481,410.84 
					808.484,405.649 718.576,308.026 				"/>
				<path style="opacity:0.1;fill:#061726;" d="M696.917,280.666l-14.967-17.311c3.107,27.286,20.424,31.703,20.424,31.703
					l4.785-4.137l-9.455-10.935L696.917,280.666z"/>
			</g>
			<g>
				<path style="fill:#035AA6;" d="M-12.104,353.697c12.304-12.047,26.919-26.078,34.681-33.508c2.171,1.08,4.866,0.854,6.849-0.798
					c0.631-0.526,1.129-1.151,1.499-1.832c2.273,0.282,4.652-0.332,6.551-1.914c3.642-3.034,4.135-8.446,1.101-12.088
					c-3.034-3.642-8.446-4.135-12.088-1.1c-1.899,1.582-2.933,3.811-3.066,6.098c-0.736,0.241-1.441,0.618-2.072,1.144
					c-1.983,1.652-2.692,4.262-2.022,6.592c-8.709,6.292-25.149,18.133-39.221,28.059c-20.233,14.272-13.861,19.466-13.861,19.466
					S-29.795,371.02-12.104,353.697z"/>
				<path style="opacity:0.1;fill:#061726;" d="M-32.579,364.827c-0.692-2.331,0.138-7.896,14.644-18.129
					c14.071-9.926,30.511-21.767,39.221-28.059c-0.67-2.331,0.039-4.94,2.022-6.592c0.631-0.526,1.336-0.902,2.072-1.144
					c0.133-2.287,1.167-4.516,3.066-6.098c3.241-2.7,7.878-2.6,11,0.018c-0.249-0.439-0.534-0.865-0.868-1.266
					c-3.034-3.642-8.446-4.135-12.088-1.1c-1.899,1.582-2.933,3.811-3.066,6.098c-0.736,0.241-1.441,0.618-2.072,1.144
					c-1.983,1.652-2.692,4.262-2.022,6.592c-8.709,6.292-25.149,18.133-39.221,28.059c-20.233,14.272-13.861,19.466-13.861,19.466
					S-33.435,364.392-32.579,364.827z"/>
				<g>
					<path style="fill:#035AA6;" d="M14.899,283.537c-1.883-2.26-1.575-5.651,0.686-7.534l22.501-18.746
						c2.261-1.883,5.651-1.575,7.534,0.686l40.334,48.415c1.883,2.261,1.575,5.651-0.686,7.534l-22.501,18.746
						c-2.261,1.883-5.651,1.575-7.534-0.686L14.899,283.537z"/>
					<g>
						
							<rect x="26.368" y="269.547" transform="matrix(-0.7683 0.6401 -0.6401 -0.7683 277.9601 489.282)" style="fill:#D9AE5F;" width="48.118" height="50.802"/>
						<g>
							
								<rect x="14.139" y="278.951" transform="matrix(-0.7683 0.6401 -0.6401 -0.7683 246.9397 471.1517)" style="fill:#AD6650;" width="48.118" height="2.636"/>
							
								<rect x="38.597" y="308.309" transform="matrix(-0.7683 0.6401 -0.6401 -0.7683 308.9816 507.4111)" style="fill:#AD6650;" width="48.118" height="2.636"/>
						</g>
					</g>
					<path style="opacity:0.1;fill:#061726;" d="M51.325,327.261l3.909,4.691c1.883,2.261,5.274,2.569,7.534,0.686l3.903-3.252
						c-0.955-1.039-1.893-2.104-2.809-3.204c-17.014-20.422-22.566-45.855-16.496-66.145l-1.745-2.095
						c-1.883-2.261-5.274-2.569-7.534-0.686l-22.501,18.746c-2.261,1.883-2.569,5.274-0.686,7.534l3.908,4.691l-3.124,2.603
						l32.518,39.032L51.325,327.261z"/>
				</g>
			</g>
		</g>
	</g>
	<g>
		<g>
			<polygon style="fill:#EAD2C3;" points="547.35,260.051 545.714,256.415 544.077,260.051 541.12,261.868 544.077,263.686 
				545.714,267.322 547.35,263.686 550.307,261.868 			"/>
			<polygon style="fill:#EAD2C3;" points="657.572,277.973 654.672,271.531 651.773,277.973 646.533,281.194 651.773,284.415 
				654.672,290.857 657.572,284.415 662.811,281.194 			"/>
			<polygon style="fill:#EAD2C3;" points="624.409,220.126 620.83,212.174 617.251,220.126 610.783,224.102 617.251,228.078 
				620.83,236.031 624.409,228.078 630.878,224.102 			"/>
			<polygon style="fill:#EAD2C3;" points="622.467,316.692 620.83,313.057 619.194,316.692 616.237,318.51 619.194,320.328 
				620.83,323.964 622.467,320.328 625.424,318.51 			"/>
			<polygon style="fill:#EAD2C3;" points="721.514,237.135 719.878,233.5 718.241,237.135 715.284,238.953 718.241,240.771 
				719.878,244.407 721.514,240.771 724.471,238.953 			"/>
			<polygon style="fill:#EAD2C3;" points="679.954,196.815 678.318,193.179 676.682,196.815 673.724,198.632 676.682,200.45 
				678.318,204.086 679.954,200.45 682.911,198.632 			"/>
			<polygon style="fill:#EAD2C3;" points="641.916,129.877 639.016,123.435 636.117,129.877 630.878,133.098 636.117,136.319 
				639.016,142.76 641.916,136.319 647.155,133.098 			"/>
			<polygon style="fill:#EAD2C3;" points="701.572,143.316 697.993,135.363 694.414,143.316 687.946,147.292 694.414,151.268 
				697.993,159.22 701.572,151.268 708.04,147.292 			"/>
			<polygon style="fill:#EAD2C3;" points="569.325,116.164 567.689,112.528 566.053,116.164 563.096,117.981 566.053,119.799 
				567.689,123.435 569.325,119.799 572.282,117.981 			"/>
			<polygon style="fill:#EAD2C3;" points="607.826,53.686 606.19,50.05 604.553,53.686 601.596,55.504 604.553,57.322 
				606.19,60.957 607.826,57.322 610.783,55.504 			"/>
			<polygon style="fill:#EAD2C3;" points="528.231,67.399 525.332,60.957 522.432,67.399 517.193,70.62 522.432,73.841 
				525.332,80.283 528.231,73.841 533.471,70.62 			"/>
		</g>
		<g>
			<polygon style="fill:#EAD2C3;" points="202.65,260.051 204.286,256.415 205.923,260.051 208.88,261.868 205.923,263.686 
				204.286,267.322 202.65,263.686 199.693,261.868 			"/>
			<polygon style="fill:#EAD2C3;" points="92.428,277.973 95.328,271.531 98.227,277.973 103.467,281.194 98.227,284.415 
				95.328,290.857 92.428,284.415 87.189,281.194 			"/>
			<polygon style="fill:#EAD2C3;" points="125.59,220.126 129.17,212.174 132.749,220.126 139.217,224.102 132.749,228.078 
				129.17,236.031 125.59,228.078 119.122,224.102 			"/>
			<polygon style="fill:#EAD2C3;" points="127.533,316.692 129.17,313.057 130.806,316.692 133.763,318.51 130.806,320.328 
				129.17,323.964 127.533,320.328 124.576,318.51 			"/>
			<polygon style="fill:#EAD2C3;" points="28.486,237.135 30.122,233.5 31.759,237.135 34.716,238.953 31.759,240.771 
				30.122,244.407 28.486,240.771 25.529,238.953 			"/>
			<polygon style="fill:#EAD2C3;" points="70.046,196.815 71.682,193.179 73.318,196.815 76.275,198.632 73.318,200.45 
				71.682,204.086 70.046,200.45 67.089,198.632 			"/>
			<polygon style="fill:#EAD2C3;" points="108.084,129.877 110.983,123.435 113.883,129.877 119.122,133.098 113.883,136.319 
				110.983,142.76 108.084,136.319 102.845,133.098 			"/>
			<polygon style="fill:#EAD2C3;" points="48.428,143.316 52.007,135.363 55.586,143.316 62.054,147.292 55.586,151.268 
				52.007,159.22 48.428,151.268 41.96,147.292 			"/>
			<polygon style="fill:#EAD2C3;" points="180.675,116.164 182.311,112.528 183.947,116.164 186.904,117.981 183.947,119.799 
				182.311,123.435 180.675,119.799 177.718,117.981 			"/>
			<polygon style="fill:#EAD2C3;" points="142.174,53.686 143.81,50.05 145.447,53.686 148.404,55.504 145.447,57.322 
				143.81,60.957 142.174,57.322 139.217,55.504 			"/>
			<polygon style="fill:#EAD2C3;" points="221.769,67.399 224.668,60.957 227.568,67.399 232.807,70.62 227.568,73.841 
				224.668,80.283 221.769,73.841 216.529,70.62 			"/>
		</g>
	</g>
	<path style="fill:#EAD2C3;" d="M0,107.637c0,0,27.715,8.153,52.007-37.016c24.292-45.17,61.343-61.516,106.023-44.08
		C202.71,43.977,250.191,30.127,260.777,0H0V107.637z"/>
	<path style="fill:#EAD2C3;" d="M750,426.869c0,0-33.149-5.539-62.203,25.15c-29.054,30.689-73.37,41.795-126.809,29.949
		c-53.439-11.846-110.229-2.437-122.891,18.032H750V426.869z"/>
	<g>
		<defs>
			<rect id="SVGID_00000041982691996943659790000016931641315947955115_" width="750" height="500"/>
		</defs>
		<clipPath id="SVGID_00000150821371871349564400000017640163051672190640_">
			<use xlink:href="#SVGID_00000041982691996943659790000016931641315947955115_"  style="overflow:visible;"/>
		</clipPath>
		<g style="clip-path:url(#SVGID_00000150821371871349564400000017640163051672190640_);">
			<g>
				<path style="fill:#BF7C63;" d="M-0.746,81.366c-17.061,0-29.924-10.242-30.066-10.357l0.629-0.777
					c0.155,0.126,15.769,12.539,35.259,9.718c13.616-1.97,25.886-10.761,36.472-26.128c33.135-48.104,50.414-44.61,87.868-23.357
					c29.378,16.67,59.278,14.603,75.88,5.158c17.126-9.741,26.466-29.089,27.011-55.952l1,0.021
					c-0.553,27.234-10.068,46.875-27.517,56.8c-10.608,6.034-24.046,8.435-38.863,6.941c-13.082-1.318-26.579-5.615-38.004-12.098
					C92.047,10.409,75.032,6.975,42.372,54.389C31.619,69.999,19.116,78.933,5.208,80.941C3.179,81.234,1.188,81.366-0.746,81.366z"
					/>
			</g>
			<g>
				<path style="fill:#BF7C63;" d="M382.97,531.31l-0.902-0.43c15.313-32.156,35.138-52.97,58.926-61.862
					c20.472-7.652,43.735-6.51,69.147,3.402c5.925,2.311,12.189,4.986,18.821,7.818c22.62,9.66,48.259,20.608,74.203,23.064
					c30.004,2.835,54.47-6.412,74.786-28.281c15.109-16.267,39.521-36.207,70.008-38.825c18.275-1.57,30.233,3.94,30.352,3.997
					l-0.426,0.904c-0.116-0.055-11.881-5.463-29.903-3.899c-30.143,2.613-54.322,22.381-69.299,38.503
					c-20.542,22.114-45.275,31.464-75.612,28.597c-26.101-2.47-51.815-13.451-74.502-23.14c-6.625-2.829-12.882-5.502-18.792-7.807
					c-25.176-9.818-48.199-10.963-68.434-3.397C417.807,478.754,398.167,499.397,382.97,531.31z"/>
			</g>
		</g>
	</g>
</g>
</svg>
